<svg width="34" height="34" viewBox="0 0 34 34" fill="none" xmlns="http://www.w3.org/2000/svg">
<g clip-path="url(#clip0_1128_16867)">
<path d="M10.6065 24.7486L23.0417 12.3134L23.0417 19.7988C23.0394 19.9316 23.0636 20.0635 23.1128 20.1868C23.162 20.3101 23.2353 20.4224 23.3283 20.5171C23.4214 20.6118 23.5324 20.6871 23.6549 20.7384C23.7773 20.7898 23.9088 20.8162 24.0416 20.8162C24.1743 20.8162 24.3058 20.7898 24.4283 20.7384C24.5507 20.6871 24.6617 20.6118 24.7548 20.5171C24.8479 20.4224 24.9211 20.3101 24.9704 20.1868C25.0196 20.0635 25.0437 19.9316 25.0414 19.7988L25.0414 9.89932C25.0414 9.63416 24.936 9.37987 24.7485 9.19237C24.561 9.00487 24.3067 8.89951 24.0416 8.89947L14.1421 8.89947C13.8799 8.90403 13.63 9.01137 13.4462 9.19839C13.2624 9.3854 13.1594 9.63712 13.1594 9.89932C13.1594 10.1615 13.2624 10.4132 13.4462 10.6003C13.63 10.7873 13.8799 10.8946 14.1421 10.8992L21.6275 10.8992L9.19232 23.3344C9.00478 23.5219 8.89943 23.7762 8.89943 24.0415C8.89943 24.3067 9.00478 24.561 9.19232 24.7486C9.37986 24.9361 9.63421 25.0415 9.89943 25.0415C10.1646 25.0415 10.419 24.9361 10.6065 24.7486Z" fill="white"/>
</g>
<defs>
<clipPath id="clip0_1128_16867">
<rect width="24" height="24" fill="white" transform="translate(33.9414 16.9705) rotate(135)"/>
</clipPath>
</defs>
</svg>
